<svg width="24" height="24" viewBox="0 0 24 24" fill="none" xmlns="http://www.w3.org/2000/svg">
<path d="M17 4C17.7911 4 18.5645 4.2346 19.2223 4.67412C19.8801 5.11365 20.3928 5.73836 20.6955 6.46927C20.9983 7.20017 21.0775 8.00444 20.9231 8.78036C20.7688 9.55629 20.3878 10.269 19.8284 10.8284C19.269 11.3878 18.5563 11.7688 17.7804 11.9231C17.0044 12.0775 16.2002 11.9983 15.4693 11.6955C14.7384 11.3928 14.1136 10.8801 13.6741 10.2223C13.2346 9.56448 13 8.79113 13 8C13 6.93913 13.4214 5.92172 14.1716 5.17157C14.9217 4.42143 15.9391 4 17 4ZM17 19C17.0015 17.9496 16.7945 16.9094 16.3912 15.9395C15.9878 14.9697 15.396 14.0895 14.65 13.35C15.2605 13.1195 15.9075 13.001 16.56 13H17.44C18.9138 13.0026 20.3265 13.5893 21.3686 14.6314C22.4107 15.6735 22.9974 17.0862 23 18.56V19C23 19.2652 22.8946 19.5196 22.7071 19.7071C22.5196 19.8946 22.2652 20 22 20H16.82C16.9364 19.6793 16.9973 19.3411 17 19Z" fill="#1ADDD2"/>
<path d="M1 19C1 19.2652 1.10536 19.5196 1.29289 19.7071C1.48043 19.8946 1.73478 20 2 20H14C14.2652 20 14.5196 19.8946 14.7071 19.7071C14.8946 19.5196 15 19.2652 15 19C15 17.4087 14.3679 15.8826 13.2426 14.7574C12.1174 13.6321 10.5913 13 9 13H7C5.4087 13 3.88258 13.6321 2.75736 14.7574C1.63214 15.8826 1 17.4087 1 19ZM8 4C8.79113 4 9.56448 4.2346 10.2223 4.67412C10.8801 5.11365 11.3928 5.73836 11.6955 6.46927C11.9983 7.20017 12.0775 8.00444 11.9231 8.78036C11.7688 9.55629 11.3878 10.269 10.8284 10.8284C10.269 11.3878 9.55628 11.7688 8.78036 11.9231C8.00444 12.0775 7.20017 11.9983 6.46927 11.6955C5.73836 11.3928 5.11365 10.8801 4.67412 10.2223C4.2346 9.56448 4 8.79113 4 8C4 6.93913 4.42143 5.92172 5.17157 5.17157C5.92172 4.42143 6.93913 4 8 4Z" fill="#1A9ED0"/>
</svg>
