<svg width="24" height="24" viewBox="0 0 24 24" fill="none" xmlns="http://www.w3.org/2000/svg">
<path d="M20.6801 8.31924C20.2521 7.89097 19.5718 7.86406 19.1117 8.23893C19.0452 8.29314 19.0967 8.24537 18.0838 9.25835L20.7132 11.8878L21.6582 10.9546C22.1151 10.4977 22.1151 9.75431 21.6582 9.29737L20.6801 8.31924ZM12.6916 14.7003L11.1448 18.0149C11.094 18.1238 11.0779 18.2458 11.0987 18.3643C11.1196 18.4827 11.1764 18.5919 11.2615 18.6769C11.3465 18.762 11.4557 18.8188 11.5741 18.8397C11.6926 18.8605 11.8146 18.8444 11.9235 18.7936L15.2381 17.2468C15.3692 17.1856 14.9722 17.5571 19.8794 12.7112L17.2551 10.0869C12.3897 14.9524 12.754 14.5666 12.6916 14.7003Z" fill="#1ADDD2"/>
<path d="M16.2232 17.9672C16.0801 18.1085 15.9139 18.2242 15.7316 18.3091L12.4171 19.8559C11.7653 20.1601 10.969 20.0443 10.4309 19.506C9.91017 18.9853 9.76951 18.1871 10.0809 17.5197L11.6277 14.2051C11.7142 14.0195 11.8327 13.8504 11.9776 13.7056L16.9605 8.7227V3.75776C16.9605 2.78853 16.172 2 15.2028 2H3.75776C2.78853 2 2 2.78853 2 3.75776V20.2417C2 21.2109 2.78853 21.9994 3.75776 21.9994H15.2028C16.172 21.9994 16.9605 21.2109 16.9605 20.2417V17.239L16.2232 17.9672ZM5.12495 5.78895H13.8747C14.1983 5.78895 14.4606 6.05129 14.4606 6.37488C14.4606 6.69846 14.1983 6.9608 13.8747 6.9608H5.12495C4.80137 6.9608 4.53903 6.69846 4.53903 6.37488C4.53903 6.05129 4.80137 5.78895 5.12495 5.78895ZM5.12495 8.91387H11.9998C12.3233 8.91387 12.5857 9.1762 12.5857 9.49979C12.5857 9.82337 12.3233 10.0857 11.9998 10.0857H5.12495C4.80137 10.0857 4.53903 9.82337 4.53903 9.49979C4.53903 9.1762 4.80137 8.91387 5.12495 8.91387ZM4.53903 12.6247C4.53903 12.3011 4.80137 12.0388 5.12495 12.0388H10.1248C10.4484 12.0388 10.7107 12.3011 10.7107 12.6247C10.7107 12.9483 10.4484 13.2106 10.1248 13.2106H5.12495C4.80137 13.2106 4.53903 12.9483 4.53903 12.6247Z" fill="#1A9ED0"/>
</svg>
