<svg width="20" height="20" viewBox="0 0 20 20" fill="none" xmlns="http://www.w3.org/2000/svg">
<path d="M16.25 8.63636C16.25 13.4091 10 17.5 10 17.5C10 17.5 3.75 13.4091 3.75 8.63636C3.75 7.0089 4.40848 5.44809 5.58058 4.2973C6.75268 3.14651 8.3424 2.5 10 2.5C11.6576 2.5 13.2473 3.14651 14.4194 4.2973C15.5915 5.44809 16.25 7.0089 16.25 8.63636Z" stroke="black" stroke-width="1.5" stroke-linecap="round" stroke-linejoin="round"/>
<path d="M10 11.25C11.3807 11.25 12.5 10.1307 12.5 8.75C12.5 7.36929 11.3807 6.25 10 6.25C8.61929 6.25 7.5 7.36929 7.5 8.75C7.5 10.1307 8.61929 11.25 10 11.25Z" stroke="black" stroke-width="1.5" stroke-linecap="round" stroke-linejoin="round"/>
</svg>
