<svg width="20" height="20" viewBox="0 0 20 20" fill="none" xmlns="http://www.w3.org/2000/svg">
<path d="M10.0013 10.8327C10.4615 10.8327 10.8346 10.4596 10.8346 9.99935C10.8346 9.53911 10.4615 9.16602 10.0013 9.16602C9.54106 9.16602 9.16797 9.53911 9.16797 9.99935C9.16797 10.4596 9.54106 10.8327 10.0013 10.8327Z" stroke="black" stroke-width="2" stroke-linecap="round" stroke-linejoin="round"/>
<path d="M10.0013 5.00065C10.4615 5.00065 10.8346 4.62756 10.8346 4.16732C10.8346 3.70708 10.4615 3.33398 10.0013 3.33398C9.54106 3.33398 9.16797 3.70708 9.16797 4.16732C9.16797 4.62756 9.54106 5.00065 10.0013 5.00065Z" stroke="black" stroke-width="2" stroke-linecap="round" stroke-linejoin="round"/>
<path d="M10.0013 16.6667C10.4615 16.6667 10.8346 16.2936 10.8346 15.8333C10.8346 15.3731 10.4615 15 10.0013 15C9.54106 15 9.16797 15.3731 9.16797 15.8333C9.16797 16.2936 9.54106 16.6667 10.0013 16.6667Z" stroke="black" stroke-width="2" stroke-linecap="round" stroke-linejoin="round"/>
</svg>
