<svg width="24" height="24" viewBox="0 0 24 24" fill="none" xmlns="http://www.w3.org/2000/svg">
<path d="M20.2185 15.8085C20.1444 15.7192 20.0716 15.6299 20.0002 15.5438C19.0181 14.3558 18.4239 13.6388 18.4239 10.2759C18.4239 8.53482 18.0073 7.10625 17.1864 6.03482C16.581 5.2433 15.7627 4.64286 14.6841 4.19911C14.6702 4.19139 14.6579 4.18126 14.6475 4.1692C14.2596 2.87009 13.198 2 12.0006 2C10.8033 2 9.74216 2.87009 9.35422 4.16786C9.34386 4.17948 9.33164 4.18928 9.31806 4.19688C6.80109 5.23304 5.57788 7.22098 5.57788 10.2746C5.57788 13.6388 4.98457 14.3558 4.00154 15.5424C3.93011 15.6286 3.85734 15.7161 3.78323 15.8071C3.59181 16.038 3.47052 16.3189 3.43373 16.6165C3.39694 16.9141 3.44619 17.2161 3.57564 17.4866C3.85109 18.067 4.43814 18.4272 5.10823 18.4272H18.898C19.5649 18.4272 20.148 18.0674 20.4243 17.4897C20.5543 17.2191 20.604 16.917 20.5676 16.619C20.5311 16.321 20.4099 16.0397 20.2185 15.8085ZM12.0006 22C12.6457 21.9995 13.2787 21.8244 13.8323 21.4932C14.386 21.1621 14.8397 20.6873 15.1453 20.1192C15.1597 20.092 15.1668 20.0615 15.1659 20.0307C15.1651 19.9999 15.1563 19.9699 15.1403 19.9435C15.1244 19.9171 15.102 19.8953 15.0752 19.8802C15.0483 19.865 15.0181 19.8571 14.9873 19.8571H9.01493C8.98409 19.857 8.95375 19.8649 8.92687 19.88C8.89998 19.8951 8.87746 19.9169 8.8615 19.9433C8.84554 19.9697 8.83669 19.9998 8.83581 20.0306C8.83492 20.0614 8.84203 20.0919 8.85645 20.1192C9.16204 20.6872 9.61567 21.162 10.1692 21.4931C10.7228 21.8242 11.3556 21.9994 12.0006 22Z" fill="#08142D"/>
</svg>
