<svg width="24" height="24" viewBox="0 0 24 24" fill="none" xmlns="http://www.w3.org/2000/svg">
<path d="M11.5343 12.2287C14.3599 12.2287 16.6506 9.93807 16.6506 7.11241C16.6506 4.28675 14.3599 1.99609 11.5343 1.99609C8.70862 1.99609 6.41797 4.28675 6.41797 7.11241C6.41797 9.93807 8.70862 12.2287 11.5343 12.2287Z" fill="#1A9ED0"/>
<path fill-rule="evenodd" clip-rule="evenodd" d="M12.8605 21.0778C11.8577 20.0036 11.3007 18.5883 11.3024 17.1187C11.3024 15.5531 11.9229 14.1308 12.9312 13.0852C12.4754 13.0499 12.0094 13.0312 11.535 13.0312C8.4447 13.0312 5.70886 13.8043 4.01025 14.9624C2.71443 15.8462 2 16.969 2 18.1476V19.4964C1.99963 19.7042 2.04029 19.91 2.11963 20.102C2.19897 20.2941 2.31545 20.4685 2.46237 20.6155C2.60929 20.7624 2.78377 20.8788 2.9758 20.9582C3.16783 21.0375 3.37363 21.0782 3.58141 21.0778H12.8605Z" fill="#1A9ED0"/>
<path fill-rule="evenodd" clip-rule="evenodd" d="M17.1181 12.2344C14.4223 12.2344 12.2344 14.4223 12.2344 17.1181C12.2344 19.814 14.4223 22.0019 17.1181 22.0019C19.814 22.0019 22.0019 19.814 22.0019 17.1181C22.0019 14.4223 19.814 12.2344 17.1181 12.2344ZM16.4205 17.1181V19.4437C16.4205 19.6288 16.494 19.8062 16.6248 19.9371C16.7556 20.0679 16.9331 20.1414 17.1181 20.1414C17.3032 20.1414 17.4806 20.0679 17.6115 19.9371C17.7423 19.8062 17.8158 19.6288 17.8158 19.4437V17.1181C17.8158 16.9331 17.7423 16.7556 17.6115 16.6248C17.4806 16.494 17.3032 16.4205 17.1181 16.4205C16.9331 16.4205 16.7556 16.494 16.6248 16.6248C16.494 16.7556 16.4205 16.9331 16.4205 17.1181ZM17.1181 14.0949C17.3648 14.0949 17.6015 14.1929 17.7759 14.3673C17.9504 14.5418 18.0484 14.7784 18.0484 15.0251C18.0484 15.2718 17.9504 15.5084 17.7759 15.6829C17.6015 15.8573 17.3648 15.9553 17.1181 15.9553C16.8714 15.9553 16.6348 15.8573 16.4604 15.6829C16.2859 15.5084 16.1879 15.2718 16.1879 15.0251C16.1879 14.7784 16.2859 14.5418 16.4604 14.3673C16.6348 14.1929 16.8714 14.0949 17.1181 14.0949Z" fill="#1ADDD2"/>
</svg>
