<svg width="24" height="24" viewBox="0 0 24 24" fill="none" xmlns="http://www.w3.org/2000/svg">
<path fill-rule="evenodd" clip-rule="evenodd" d="M12.9315 13.9758C12.9293 14.1143 12.8857 14.249 12.8065 14.3627C12.7273 14.4764 12.616 14.5638 12.4869 14.6139L7.8357 16.4232C7.66325 16.4903 7.4712 16.4862 7.30181 16.4117C7.13242 16.3372 6.99955 16.1985 6.93245 16.026C6.86534 15.8536 6.86949 15.6615 6.94398 15.4921C7.01847 15.3227 7.1572 15.1899 7.32966 15.1228L11.9808 13.3135C12.0856 13.2727 12.1986 13.2578 12.3103 13.2701C12.422 13.2824 12.5291 13.3215 12.6224 13.3841C12.7158 13.4466 12.7926 13.5308 12.8464 13.6295C12.9003 13.7281 12.9295 13.8383 12.9315 13.9507V10.2037C12.9291 10.3422 12.8856 10.4768 12.8064 10.5905C12.7272 10.7041 12.616 10.7916 12.4869 10.8418L7.8357 12.6502C7.66325 12.7173 7.4712 12.7132 7.30181 12.6387C7.13242 12.5642 6.99955 12.4255 6.93245 12.253C6.86534 12.0805 6.86949 11.8885 6.94398 11.7191C7.01847 11.5497 7.1572 11.4168 7.32966 11.3497L11.9808 9.54136C12.0856 9.50059 12.1986 9.48571 12.3103 9.498C12.422 9.51029 12.5291 9.54939 12.6224 9.61196C12.7158 9.67452 12.7926 9.75872 12.8464 9.85737C12.9003 9.95602 12.9295 10.0662 12.9315 10.1786V6.43066C12.9291 6.56915 12.8856 6.70379 12.8064 6.81744C12.7272 6.93108 12.616 7.01859 12.4869 7.0688L7.8357 8.87718C7.66325 8.94428 7.4712 8.94013 7.30181 8.86564C7.13242 8.79115 6.99955 8.65242 6.93245 8.47997C6.86534 8.30751 6.86949 8.11547 6.94398 7.94607C7.01847 7.77668 7.1572 7.64381 7.32966 7.57671L11.9808 5.76833C12.0856 5.72756 12.1986 5.71268 12.3103 5.72497C12.422 5.73726 12.5291 5.77635 12.6224 5.83892C12.7158 5.90149 12.7926 5.98568 12.8464 6.08433C12.9003 6.18299 12.9295 6.29318 12.9315 6.40554V2.69762C12.932 2.584 12.9046 2.47199 12.8518 2.37139C12.799 2.27079 12.7223 2.18465 12.6285 2.12051C12.5348 2.05636 12.4267 2.01616 12.3138 2.00342C12.2009 1.99067 12.0866 2.00577 11.9808 2.04739L3.60871 5.30321C3.47772 5.35419 3.36518 5.44354 3.28584 5.55957C3.2065 5.6756 3.16405 5.81289 3.16406 5.95345V21.3023C3.16406 21.6874 3.47662 22 3.86174 22H12.2339C12.4189 22 12.5963 21.9265 12.7272 21.7957C12.858 21.6648 12.9315 21.4874 12.9315 21.3023V13.9758Z" fill="#848484"/>
<path fill-rule="evenodd" clip-rule="evenodd" d="M21.3024 20.6045H2.69768C2.51264 20.6045 2.33518 20.678 2.20434 20.8088C2.0735 20.9397 2 21.1171 2 21.3022C2 21.4872 2.0735 21.6647 2.20434 21.7955C2.33518 21.9263 2.51264 21.9998 2.69768 21.9998H21.3024C21.4874 21.9998 21.6649 21.9263 21.7957 21.7955C21.9266 21.6647 22.0001 21.4872 22.0001 21.3022C22.0001 21.1171 21.9266 20.9397 21.7957 20.8088C21.6649 20.678 21.4874 20.6045 21.3024 20.6045Z" fill="#848484"/>
<path fill-rule="evenodd" clip-rule="evenodd" d="M13.3193 21.9997C13.216 21.7817 13.1626 21.5433 13.1631 21.302V11.0695C13.1631 10.1708 13.8924 9.44154 14.791 9.44154H17.1166V5.95316C17.1165 5.84688 17.0922 5.74202 17.0454 5.64658C16.9987 5.55114 16.9307 5.46764 16.8468 5.40246L12.6607 2.14664C12.5576 2.06658 12.4342 2.01704 12.3043 2.00367C12.1745 1.9903 12.0435 2.01362 11.9262 2.07099C11.809 2.12835 11.7102 2.21746 11.641 2.32818C11.5719 2.43891 11.5352 2.5668 11.5352 2.69733V21.302C11.5352 21.6872 11.8477 21.9997 12.2328 21.9997H13.3193Z" fill="#848484"/>
<path fill-rule="evenodd" clip-rule="evenodd" d="M20.838 11.0697C20.838 10.8847 20.7645 10.7073 20.6336 10.5764C20.5028 10.4456 20.3253 10.3721 20.1403 10.3721H14.7914C14.6064 10.3721 14.4289 10.4456 14.2981 10.5764C14.1673 10.7073 14.0938 10.8847 14.0938 11.0697V21.3023C14.0938 21.6875 14.4063 22 14.7914 22H20.1403C20.3253 22 20.5028 21.9265 20.6336 21.7957C20.7645 21.6648 20.838 21.4874 20.838 21.3023V11.0697ZM17.931 16.8837H17.0007C16.8157 16.8837 16.6382 16.9572 16.5074 17.0881C16.3766 17.2189 16.3031 17.3964 16.3031 17.5814C16.3031 17.7664 16.3766 17.9439 16.5074 18.0747C16.6382 18.2056 16.8157 18.2791 17.0007 18.2791H17.931C18.116 18.2791 18.2935 18.2056 18.4243 18.0747C18.5551 17.9439 18.6286 17.7664 18.6286 17.5814C18.6286 17.3964 18.5551 17.2189 18.4243 17.0881C18.2935 16.9572 18.116 16.8837 17.931 16.8837ZM17.931 13.6279H17.0007C16.8157 13.6279 16.6382 13.7014 16.5074 13.8322C16.3766 13.9631 16.3031 14.1405 16.3031 14.3256C16.3031 14.5106 16.3766 14.6881 16.5074 14.8189C16.6382 14.9497 16.8157 15.0232 17.0007 15.0232H17.931C18.116 15.0232 18.2935 14.9497 18.4243 14.8189C18.5551 14.6881 18.6286 14.5106 18.6286 14.3256C18.6286 14.1405 18.5551 13.9631 18.4243 13.8322C18.2935 13.7014 18.116 13.6279 17.931 13.6279Z" fill="#848484"/>
</svg>
