<svg width="24" height="24" viewBox="0 0 24 24" fill="none" xmlns="http://www.w3.org/2000/svg">
<path d="M16.2852 16.2856C16.2852 16.475 16.3604 16.6567 16.4944 16.7907C16.6283 16.9246 16.81 16.9999 16.9994 16.9999H20.5709V15.5713H16.9994C16.81 15.5713 16.6283 15.6465 16.4944 15.7805C16.3604 15.9145 16.2852 16.0961 16.2852 16.2856Z" fill="#848484"/>
<path d="M19.144 10.7067V9.85672C19.144 9.2884 18.9182 8.74336 18.5163 8.3415C18.1145 7.93963 17.5694 7.71387 17.0011 7.71387H15.0297L13.6011 9.14244H17.0011C17.1906 9.14244 17.3722 9.21769 17.5062 9.35165C17.6401 9.4856 17.7154 9.66728 17.7154 9.85672V10.571H5.57254C5.3831 10.571 5.20142 10.4958 5.06747 10.3618C4.93351 10.2278 4.85826 10.0462 4.85826 9.85672C4.85826 9.66728 4.93351 9.4856 5.06747 9.35165C5.20142 9.21769 5.3831 9.14244 5.57254 9.14244H8.97255L7.54397 7.71387H5.57254C5.00422 7.71387 4.45918 7.93963 4.05732 8.3415C3.65545 8.74336 3.42969 9.2884 3.42969 9.85672V19.8567C3.42969 20.425 3.65545 20.9701 4.05732 21.372C4.45918 21.7738 5.00422 21.9996 5.57254 21.9996H18.4297C18.998 21.9996 19.5431 21.7738 19.9449 21.372C20.3468 20.9701 20.5725 20.425 20.5725 19.8567V18.4282H17.0011C16.4328 18.4282 15.8878 18.2024 15.4859 17.8005C15.084 17.3987 14.8583 16.8536 14.8583 16.2853C14.8583 15.717 15.084 15.1719 15.4859 14.7701C15.8878 14.3682 16.4328 14.1424 17.0011 14.1424H20.5725V12.7139C20.5698 12.273 20.4312 11.8437 20.1755 11.4845C19.9199 11.1253 19.5597 10.8537 19.144 10.7067Z" fill="#848484"/>
<path d="M10.7784 8.93571C10.8448 9.00266 10.9238 9.0558 11.0108 9.09207C11.0979 9.12833 11.1912 9.147 11.2855 9.147C11.3798 9.147 11.4732 9.12833 11.5602 9.09207C11.6473 9.0558 11.7263 9.00266 11.7927 8.93571L13.9355 6.79286C14.0346 6.69241 14.1018 6.56486 14.1285 6.4263C14.1552 6.28773 14.1402 6.14436 14.0855 6.01429C14.0319 5.88384 13.941 5.77218 13.824 5.69337C13.7071 5.61456 13.5694 5.57213 13.4284 5.57143H11.9998V2.71429C11.9998 2.52485 11.9246 2.34316 11.7906 2.20921C11.6567 2.07525 11.475 2 11.2855 2C11.0961 2 10.9144 2.07525 10.7805 2.20921C10.6465 2.34316 10.5712 2.52485 10.5712 2.71429V5.57143H9.14268C9.00166 5.57213 8.86401 5.61456 8.74706 5.69337C8.63012 5.77218 8.53912 5.88384 8.48554 6.01429C8.43084 6.14436 8.41589 6.28773 8.44259 6.4263C8.46928 6.56486 8.53642 6.69241 8.63554 6.79286L10.7784 8.93571Z" fill="#848484"/>
</svg>
