<svg width="24" height="24" viewBox="0 0 24 24" fill="none" xmlns="http://www.w3.org/2000/svg">
<path fill-rule="evenodd" clip-rule="evenodd" d="M13.2908 10.2227C12.3543 11.1593 11.2082 11.634 9.88474 11.634C8.56152 11.634 7.41559 11.1591 6.479 10.2229C5.54242 9.28643 5.06758 8.14051 5.06758 6.81685C5.06758 5.49347 5.54245 4.34755 6.47885 3.41112C7.41524 2.47468 8.56105 2 9.88474 2C11.2081 2 12.354 2.47468 13.2906 3.41096C14.2272 4.3477 14.7019 5.49359 14.7019 6.81685C14.7019 8.14051 14.2272 9.28628 13.2908 10.2227ZM14.1886 21.9999C12.8243 20.6102 12 18.7227 12 17C12 14.8738 12 13.5289 12.3165 12.5435C12.0587 12.7012 11.7176 12.8491 11.301 12.9836C10.8733 13.122 10.4391 13.1922 10.0104 13.1922C9.58186 13.1922 9.14772 13.122 8.71956 12.9836C8.28168 12.8421 7.92676 12.6858 7.66504 12.5188C7.36153 12.3249 7.08693 12.1479 6.84873 11.9927C6.46787 11.7444 6.27026 11.6607 6.06612 11.6607C5.54609 11.6607 5.06027 11.7487 4.62188 11.9224C4.18212 12.0965 3.80142 12.3356 3.49029 12.6333C3.19323 12.9177 2.92819 13.2629 2.70296 13.6595C2.48585 14.0418 2.31007 14.4405 2.18066 14.8447C2.05566 15.2355 1.95117 15.6628 1.87 16.1151C1.78957 16.5634 1.73496 16.9887 1.70793 17.3793C1.68104 17.7724 1.66772 18.1663 1.66797 18.5603C1.66797 19.6043 1.99984 20.4495 2.65429 21.0728C3.30065 21.6879 4.15587 21.9999 5.1959 21.9999H14.1886Z" fill="#1A9ED0"/>
<path d="M17.2958 18.8407C17.0607 19.5727 16.7518 20.2436 16.3729 20.8426C16.2448 21.0588 15.9065 21.0508 15.7895 20.8279L15.2332 19.8457L13.8159 20.3342C13.5089 20.4516 13.227 20.0515 13.4348 19.7932C13.8836 19.1951 14.2286 18.5572 14.4655 17.8885C14.9101 18.1819 15.4516 18.2729 15.9692 18.1982C16.328 18.569 16.7931 18.7931 17.2958 18.8407ZM21.5713 20.2073C21.5287 20.2679 21.468 20.313 21.3983 20.3359C21.3285 20.3587 21.2534 20.3581 21.1841 20.3342L19.7668 19.8457L19.2105 20.8279C19.0935 21.0508 18.7551 21.0587 18.6271 20.8426C18.2482 20.2436 17.9393 19.5727 17.7042 18.8407C18.2068 18.7931 18.672 18.569 19.031 18.1982C19.5483 18.2729 20.0901 18.1819 20.5344 17.8885C20.7714 18.5572 21.1164 19.1951 21.5651 19.7932C21.6097 19.8524 21.6343 19.9246 21.6355 19.9992C21.6366 20.0738 21.6141 20.1468 21.5713 20.2073ZM17.5 11.2116C16.3311 11.2116 15.3801 12.1822 15.3801 13.3752C15.3801 14.5682 16.3311 15.5388 17.5 15.5388C18.6689 15.5388 19.6198 14.5682 19.6198 13.3752C19.6198 12.1822 18.6689 11.2116 17.5 11.2116ZM18.6288 13.0593L17.5073 14.2034C17.3745 14.3441 17.1358 14.3446 17.003 14.2034L16.3712 13.5589C16.2323 13.417 16.2326 13.1874 16.3717 13.046C16.5105 12.9041 16.7381 12.9058 16.8753 13.0464L17.2552 13.4339L17.5 13.1842L18.1247 12.547C18.2617 12.4041 18.494 12.4069 18.6283 12.5465C18.7674 12.688 18.7677 12.9176 18.6288 13.0593ZM17.5 11.2116C16.3311 11.2116 15.3801 12.1822 15.3801 13.3752C15.3801 14.5682 16.3311 15.5388 17.5 15.5388C18.6689 15.5388 19.6198 14.5682 19.6198 13.3752C19.6198 12.1822 18.6689 11.2116 17.5 11.2116ZM18.6288 13.0593L17.5073 14.2034C17.3745 14.3441 17.1358 14.3446 17.003 14.2034L16.3712 13.5589C16.2323 13.417 16.2326 13.1874 16.3717 13.046C16.5105 12.9041 16.7381 12.9058 16.8753 13.0464L17.2552 13.4339L17.5 13.1842L18.1247 12.547C18.2617 12.4041 18.494 12.4069 18.6283 12.5465C18.7674 12.688 18.7677 12.9176 18.6288 13.0593ZM21.8384 13.0341C22.0165 12.6831 22.0486 12.2826 21.9287 11.9066C21.8088 11.5312 21.5521 11.2269 21.2062 11.0497C20.9958 10.9421 20.8491 10.7362 20.8137 10.4985C20.7555 10.1074 20.5503 9.76387 20.2362 9.53155C19.9228 9.29971 19.5398 9.20738 19.1578 9.27167C18.9279 9.31035 18.6889 9.2325 18.5236 9.06135C18.2512 8.77995 17.8877 8.625 17.5 8.625C17.1123 8.625 16.7487 8.77995 16.4764 9.06135C16.3949 9.14547 16.2948 9.20848 16.1844 9.24507C16.0741 9.28167 15.9567 9.29079 15.8422 9.27167C15.4602 9.20736 15.0772 9.29971 14.7638 9.53155C14.4497 9.76387 14.2445 10.1074 14.1863 10.4985C14.1509 10.7362 14.0042 10.9421 13.7938 11.0497C13.4479 11.2269 13.1912 11.5312 13.0713 11.9066C12.9514 12.2826 12.9835 12.6831 13.1616 13.0344C13.2149 13.1398 13.2428 13.2567 13.2428 13.3753C13.2428 13.494 13.2149 13.6109 13.1616 13.7163C12.9835 14.0673 12.9514 14.4679 13.0713 14.8438C13.1912 15.2192 13.4479 15.5236 13.7938 15.7008C14.0042 15.8083 14.1509 16.0143 14.1863 16.2519C14.2445 16.6431 14.4497 16.9866 14.7638 17.2189C15.0772 17.4507 15.4602 17.5431 15.8422 17.4788C15.9567 17.4597 16.0741 17.4688 16.1844 17.5054C16.2948 17.542 16.3949 17.605 16.4764 17.6891C16.7488 17.9705 17.1123 18.1254 17.5 18.1254C17.8877 18.1254 18.2512 17.9705 18.5236 17.6891C18.6051 17.605 18.7052 17.542 18.8156 17.5054C18.9259 17.4688 19.0433 17.4597 19.1578 17.4788C19.5398 17.5431 19.9228 17.4507 20.2362 17.2189C20.5503 16.9866 20.7555 16.6431 20.8137 16.2519C20.8491 16.0143 20.9958 15.8083 21.2062 15.7008C21.5521 15.5236 21.8088 15.2192 21.9287 14.8438C22.0486 14.4679 22.0165 14.0673 21.8384 13.7161C21.7851 13.6106 21.7572 13.4937 21.7572 13.3751C21.7572 13.2565 21.7851 13.1396 21.8384 13.0341ZM17.5 16.264C15.9384 16.264 14.6678 14.9681 14.6678 13.3752C14.6678 11.7824 15.9384 10.4864 17.5 10.4864C19.0616 10.4864 20.3321 11.7824 20.3321 13.3752C20.3321 14.9681 19.0616 16.264 17.5 16.264ZM17.5 11.2116C16.3311 11.2116 15.3801 12.1822 15.3801 13.3752C15.3801 14.5682 16.3311 15.5388 17.5 15.5388C18.6689 15.5388 19.6198 14.5682 19.6198 13.3752C19.6198 12.1822 18.6689 11.2116 17.5 11.2116ZM18.6288 13.0593L17.5073 14.2034C17.3745 14.3441 17.1358 14.3446 17.003 14.2034L16.3712 13.5589C16.2323 13.417 16.2326 13.1874 16.3717 13.046C16.5105 12.9041 16.7381 12.9058 16.8753 13.0464L17.2552 13.4339L18.1247 12.547C18.2617 12.4042 18.4939 12.4069 18.6283 12.5465C18.7674 12.688 18.7677 12.9176 18.6288 13.0593Z" fill="#1ADDD2"/>
</svg>
