<svg width="24" height="24" viewBox="0 0 24 24" fill="none" xmlns="http://www.w3.org/2000/svg">
<path d="M13.5915 14.2693C16.9474 14.2693 19.6775 11.5173 19.6775 8.13465C19.6775 4.75204 16.9474 2 13.5915 2C10.2357 2 7.50552 4.752 7.50552 8.13461C7.50552 11.5172 10.2357 14.2693 13.5915 14.2693ZM11.6359 10.0489C11.8129 9.77834 12.1759 9.70237 12.4465 9.87948C12.8408 10.1374 12.9896 10.1612 13.5099 10.1575C14.0178 10.1542 14.3125 9.77564 14.3713 9.42532C14.4 9.25492 14.411 8.83881 13.8953 8.65651C13.2904 8.44266 12.6713 8.19825 12.2407 7.86045C11.81 7.52266 11.6128 6.93951 11.726 6.33869C11.8488 5.68734 12.3032 5.16884 12.9118 4.98552C12.9173 4.98388 12.9227 4.98256 12.9282 4.98092V4.75895C12.9282 4.43556 13.1904 4.17338 13.5138 4.17338C13.8372 4.17338 14.0994 4.43556 14.0994 4.75895V4.94403C14.4971 5.03897 14.7748 5.22092 14.8876 5.3052C15.1466 5.49887 15.1996 5.86578 15.006 6.12484C14.8124 6.38389 14.4455 6.4369 14.1864 6.2432C14.0664 6.15349 13.7348 5.96065 13.2496 6.10684C12.9661 6.19226 12.8926 6.47192 12.8769 6.55558C12.8459 6.71997 12.8807 6.87405 12.9634 6.93893C13.2619 7.17308 13.7993 7.38041 14.2856 7.55229C15.1822 7.86924 15.6808 8.69996 15.5263 9.61945C15.4504 10.0706 15.2235 10.4892 14.8871 10.7982C14.6581 11.0086 14.3914 11.1587 14.0994 11.2444V11.5103C14.0994 11.8337 13.8372 12.0958 13.5138 12.0958C13.1904 12.0958 12.9282 11.8337 12.9282 11.5103V11.3028C12.5496 11.2569 12.2318 11.1385 11.8053 10.8595C11.5348 10.6825 11.4589 10.3196 11.6359 10.0489Z" fill="#1ADDD2"/>
<path d="M4.21761 16.2353H2.88244C2.55905 16.2353 2.29688 16.4975 2.29688 16.8209V21.4113C2.29688 21.7347 2.55905 21.9969 2.88244 21.9969H4.21765L4.21761 16.2353ZM21.5268 16.1944C20.4293 15.0969 18.6435 15.0968 17.546 16.1944L15.7919 17.9485L15.0729 18.6675C14.7824 18.958 14.3883 19.1213 13.9773 19.1213H10.4814C10.1656 19.1213 9.89392 18.8786 9.87905 18.5632C9.8632 18.2265 10.1315 17.9485 10.4648 17.9485H14.0182C14.7327 17.9485 15.3524 17.4398 15.4752 16.736C15.5034 16.5744 15.5181 16.4082 15.5181 16.2387C15.5182 15.9147 15.2557 15.6518 14.9317 15.6518H12.9846C12.3483 15.6518 11.7373 15.3632 11.0903 15.0575C10.4117 14.737 9.71005 14.4055 8.8896 14.3509C8.17201 14.3031 7.45278 14.3817 6.75178 14.5841C6.0012 14.8008 5.46166 15.4677 5.39623 16.2376C5.39373 16.2374 5.3912 16.2373 5.38866 16.2372V21.9949L15.477 21.9976C16.1707 21.9976 16.8228 21.7275 17.3134 21.237L21.5267 17.0237C21.7558 16.7947 21.7558 16.4234 21.5268 16.1944Z" fill="#1A9ED0"/>
</svg>
