<svg width="24" height="24" viewBox="0 0 24 24" fill="none" xmlns="http://www.w3.org/2000/svg">
<path d="M21.7128 7.66407L12.2993 2.07534C12.2087 2.02155 12.1053 1.99316 12 1.99316C11.8946 1.99316 11.7912 2.02155 11.7007 2.07534L2.28711 7.66407C2.00864 7.82938 1.91694 8.18911 2.08225 8.46758C2.24755 8.74601 2.60729 8.83775 2.88575 8.67244L4.07847 7.96435V17.666C4.07847 17.9898 4.34099 18.2523 4.6648 18.2523H6.88499L6.88495 9.4702C6.88495 9.36662 6.9124 9.26488 6.96449 9.17535C7.01658 9.08581 7.09146 9.01168 7.18152 8.96049L11.7102 6.38619C11.7986 6.336 11.8984 6.30961 12 6.30961C12.1016 6.30961 12.2015 6.336 12.2898 6.38619L16.8185 8.96049C16.9086 9.01168 16.9834 9.08582 17.0355 9.17535C17.0876 9.26488 17.1151 9.36662 17.1151 9.4702V18.2523H19.3353C19.6591 18.2523 19.9216 17.9898 19.9216 17.666V7.96435L21.1143 8.67244C21.3933 8.8381 21.7528 8.74542 21.9178 8.46758C22.083 8.18911 21.9913 7.82938 21.7128 7.66407Z" fill="#848484"/>
<path d="M8.05859 9.81134V21.4203C8.05859 21.744 8.32107 22.0066 8.64492 22.0066H15.3571C15.6809 22.0066 15.9434 21.7441 15.9434 21.4203V9.81134L12.001 7.57031L8.05859 9.81134ZM13.6486 14.3495C13.8699 14.586 13.8575 14.957 13.6211 15.1783C13.3957 15.3892 13.048 15.3879 12.8243 15.1824C12.7544 15.1125 12.4454 14.9052 12.0142 14.9052C11.9313 14.9052 11.8403 14.9216 11.7545 14.9474C11.4381 15.0427 11.4027 15.3211 11.5396 15.4389C11.6947 15.5066 12.1636 15.7084 12.6664 15.8939C14.5739 16.5975 14.1743 18.6417 12.5942 19.029V19.0881C12.5942 19.4119 12.3317 19.6744 12.0079 19.6744C11.6841 19.6744 11.4215 19.4119 11.4215 19.0881V19.001C10.9515 18.8781 10.5284 18.6283 10.2089 18.2757C9.99137 18.0357 10.0096 17.665 10.2496 17.4475C10.4895 17.23 10.8603 17.2482 11.0778 17.4882C11.3202 17.7557 11.7025 17.9154 12.1004 17.9154C12.4711 17.9154 12.7311 17.7004 12.7682 17.4925C12.8165 17.2216 12.3919 17.0425 12.2606 16.9941C12.0887 16.9307 11.0785 16.5408 10.9269 16.4419C9.91483 15.7821 10.1331 14.2078 11.4216 13.8232V13.7329C11.4216 13.4091 11.6841 13.1466 12.0079 13.1466C12.3317 13.1466 12.5942 13.4091 12.5942 13.7329V13.8008C13.1443 13.9363 13.5419 14.2355 13.6486 14.3495ZM13.1737 10.8859C13.1737 11.2097 12.9111 11.4722 12.5873 11.4722H11.4147C11.0909 11.4722 10.8283 11.2097 10.8283 10.8859C10.8283 10.5621 11.0909 10.2996 11.4147 10.2996H12.5873C12.9111 10.2996 13.1737 10.5621 13.1737 10.8859Z" fill="#848484"/>
</svg>
