<svg width="24" height="24" viewBox="0 0 24 24" fill="none" xmlns="http://www.w3.org/2000/svg">
<path d="M20.3284 7.69105H21.9504V5.41463C21.9504 3.58536 20.4906 2.0813 18.6659 2V3.86992C18.6659 4.31707 18.301 4.68292 17.8549 4.68292C17.4089 4.68292 17.0439 4.27642 17.0439 3.86992V2H7.02816V3.78862C7.02816 4.23577 6.66321 4.60162 6.21716 4.60162C5.77112 4.60162 5.40617 4.19512 5.40617 3.78862V2C3.54089 2 2 3.54471 2 5.41463V7.69105H3.62199H20.3284Z" fill="#848484"/>
<path d="M3.62199 9.31641H2V18.5847C2 20.4546 3.54089 21.9993 5.40617 21.9993H18.5443C20.4095 21.9993 21.9504 20.4546 21.9504 18.5847V9.31641H20.3284H3.62199Z" fill="#848484"/>
<path d="M11.2413 16.2727L9.80844 14.8398C9.48855 14.5199 8.96997 14.5199 8.65008 14.8398C8.33018 15.1597 8.33018 15.6783 8.65007 15.9982L10.6619 18.01C10.662 18.0101 10.6621 18.0102 10.6621 18.0102C10.7381 18.0864 10.8284 18.1468 10.9278 18.188C11.0272 18.2291 11.1338 18.2503 11.2414 18.2502M11.2413 16.2727L11.8207 18.0101L11.6437 17.8335L11.8205 18.0103L11.8205 18.0102C11.7445 18.0864 11.6542 18.1468 11.5548 18.188C11.4554 18.2291 11.3489 18.2503 11.2414 18.2502M11.2413 16.2727L14.6863 12.8278L14.6863 12.8278C14.8399 12.6742 15.0482 12.5879 15.2654 12.5879C15.4826 12.5879 15.6909 12.6742 15.8445 12.8277M11.2413 16.2727L15.8446 13.9861M11.2414 18.2502C11.2412 18.2502 11.2411 18.2502 11.241 18.2502L11.2413 18.0002L11.2416 18.2502C11.2415 18.2502 11.2415 18.2502 11.2414 18.2502ZM15.8446 13.9861C15.9206 13.9101 15.981 13.8198 16.0222 13.7205C16.0633 13.6211 16.0845 13.5145 16.0845 13.407C16.0845 13.2994 16.0633 13.1928 16.0222 13.0935C15.981 12.9941 15.9206 12.9038 15.8445 12.8277M15.8446 13.9861L15.6678 13.8094L15.8445 13.9862L15.8446 13.9861ZM15.8445 12.8277L15.6678 13.0045L15.8446 12.8278C15.8445 12.8277 15.8445 12.8277 15.8445 12.8277Z" fill="white" stroke="white" stroke-width="0.5"/>
</svg>
